<svg xmlns="http://www.w3.org/2000/svg" xmlns:xlink="http://www.w3.org/1999/xlink" viewBox="0 0 1078.83 298.3"><defs><style>.cls-1{font-size:132.03px;font-family:Roboto-Regular, Roboto;}.cls-1,.cls-5{fill:#fff;}.cls-2{font-size:119.65px;fill:#35a8e0;font-family:Roboto-Bold, Roboto;font-weight:700;}.cls-3{letter-spacing:-0.01em;}.cls-4{letter-spacing:0em;}.cls-6{fill:url(#AzzurroLogo);}</style><linearGradient id="AzzurroLogo" y1="286.96" x2="1078.83" y2="286.96" gradientUnits="userSpaceOnUse"><stop offset="0" stop-color="#51bfd5"/><stop offset="0.99" stop-color="#68c6e7"/></linearGradient></defs><title>Risorsa 2</title><g id="Livello_2" data-name="Livello 2"><g id="Logo"><text class="cls-1" transform="translate(409.83 130.08)">AI Solution</text><text class="cls-2" transform="translate(409.82 242.51)">&lt;A<tspan class="cls-3" x="141.39" y="0">r</tspan><tspan class="cls-4" x="183.92" y="0">chitect/&gt;</tspan></text><path class="cls-5" d="M313.82,219.13H3.86A3.86,3.86,0,0,1,0,215.26V3.86A3.86,3.86,0,0,1,3.86,0h310a3.86,3.86,0,0,1,3.86,3.86v211.4A3.86,3.86,0,0,1,313.82,219.13Zm-16.91-203H20.78A3.87,3.87,0,0,0,16.91,20V199.13A3.86,3.86,0,0,0,20.78,203H296.91a3.86,3.86,0,0,0,3.86-3.86V20A3.86,3.86,0,0,0,296.91,16.13Z"/><rect class="cls-5" y="236.77" width="317.68" height="22.68" rx="1.66"/><rect class="cls-6" y="275.62" width="1078.83" height="22.68" rx="1.66"/></g></g></svg>