<svg xmlns="http://www.w3.org/2000/svg" xmlns:xlink="http://www.w3.org/1999/xlink" viewBox="0 0 790 576"><defs><style>.cls-1{fill:url(#Sfumatura_senza_nome_22);}.cls-2{fill:url(#Sfumatura_senza_nome_22-2);}.cls-3{fill:url(#Sfumatura_senza_nome_22-3);}.cls-4{fill:url(#Sfumatura_senza_nome_22-4);}.cls-5{fill:url(#Sfumatura_senza_nome_22-5);}.cls-6{fill:url(#Sfumatura_senza_nome_22-6);}.cls-7{fill:url(#Sfumatura_senza_nome_28);}.cls-8{fill:url(#Sfumatura_senza_nome_28-2);}.cls-9{fill:url(#Sfumatura_senza_nome_28-3);}.cls-10{fill:#666;}.cls-10,.cls-11{stroke:#666;stroke-miterlimit:10;stroke-width:0.75px;}.cls-11{fill:#fff;}</style><linearGradient id="Sfumatura_senza_nome_22" x1="0.44" y1="222" x2="26.68" y2="222" gradientUnits="userSpaceOnUse"><stop offset="0" stop-color="#00d7ff"/><stop offset="1" stop-color="#00cddf"/></linearGradient><linearGradient id="Sfumatura_senza_nome_22-2" x1="0" y1="222" x2="27.12" y2="222" xlink:href="#Sfumatura_senza_nome_22"/><linearGradient id="Sfumatura_senza_nome_22-3" x1="37.18" y1="222" x2="63.43" y2="222" xlink:href="#Sfumatura_senza_nome_22"/><linearGradient id="Sfumatura_senza_nome_22-4" x1="36.74" y1="222" x2="63.86" y2="222" xlink:href="#Sfumatura_senza_nome_22"/><linearGradient id="Sfumatura_senza_nome_22-5" x1="76.55" y1="222" x2="102.8" y2="222" xlink:href="#Sfumatura_senza_nome_22"/><linearGradient id="Sfumatura_senza_nome_22-6" x1="76.11" y1="222" x2="103.23" y2="222" xlink:href="#Sfumatura_senza_nome_22"/><linearGradient id="Sfumatura_senza_nome_28" x1="0.87" y1="473.5" x2="790" y2="473.5" gradientUnits="userSpaceOnUse"><stop offset="0" stop-color="#099773"/><stop offset="1" stop-color="#43b692"/></linearGradient><linearGradient id="Sfumatura_senza_nome_28-2" x1="0.87" y1="515.5" x2="790" y2="515.5" xlink:href="#Sfumatura_senza_nome_28"/><linearGradient id="Sfumatura_senza_nome_28-3" x1="0.87" y1="560.5" x2="790" y2="560.5" xlink:href="#Sfumatura_senza_nome_28"/></defs><title>Risorsa 1</title><g id="Livello_2" data-name="Livello 2"><g id="Livello_1-2" data-name="Livello 1"><rect class="cls-1" x="0.44" y="0.79" width="26.25" height="442.42" rx="13.12"/><path class="cls-2" d="M14.89,1.58c6.26,0,11.36,9.2,11.36,20.51V421.91c0,11.31-5.1,20.51-11.36,20.51H12.23C6,442.42.87,433.22.87,421.91V22.09C.87,10.78,6,1.58,12.23,1.58h2.66m0-1.58H12.23C5.48,0,0,9.89,0,22.09V421.91C0,434.11,5.48,444,12.23,444h2.66c6.76,0,12.23-9.89,12.23-22.09V22.09C27.12,9.89,21.65,0,14.89,0Z"/><rect class="cls-3" x="37.18" y="0.79" width="26.25" height="442.42" rx="13.12"/><path class="cls-4" d="M51.64,1.58C57.9,1.58,63,10.78,63,22.09V421.91c0,11.31-5.09,20.51-11.35,20.51H49c-6.26,0-11.35-9.2-11.35-20.51V22.09C37.62,10.78,42.71,1.58,49,1.58h2.67m0-1.58H49C42.22,0,36.74,9.89,36.74,22.09V421.91C36.74,434.11,42.22,444,49,444h2.67c6.75,0,12.22-9.89,12.22-22.09V22.09C63.86,9.89,58.39,0,51.64,0Z"/><rect class="cls-5" x="76.55" y="0.79" width="26.25" height="442.42" rx="13.12"/><path class="cls-6" d="M91,1.58c6.27,0,11.36,9.2,11.36,20.51V421.91c0,11.31-5.09,20.51-11.36,20.51H88.34c-6.26,0-11.35-9.2-11.35-20.51V22.09C77,10.78,82.08,1.58,88.34,1.58H91M91,0H88.34C81.59,0,76.11,9.89,76.11,22.09V421.91c0,12.2,5.48,22.09,12.23,22.09H91c6.76,0,12.23-9.89,12.23-22.09V22.09C103.23,9.89,97.76,0,91,0Z"/><rect class="cls-7" x="0.87" y="458" width="789.13" height="31" rx="13.98"/><rect class="cls-8" x="0.87" y="500" width="789.13" height="31" rx="13.98"/><rect class="cls-9" x="0.87" y="545" width="789.13" height="31" rx="13.98"/><path class="cls-10" d="M737.29,21H141.07a20.34,20.34,0,0,0-20.34,20.34V419.66A20.34,20.34,0,0,0,141.07,440H737.29a20.33,20.33,0,0,0,20.34-20.34V41.34A20.33,20.33,0,0,0,737.29,21Zm-5,371a20.34,20.34,0,0,1-20.34,20.33H166.44A20.34,20.34,0,0,1,146.1,392V69a20.34,20.34,0,0,1,20.34-20.33H711.92A20.34,20.34,0,0,1,732.26,69Z"/><path class="cls-11" d="M732.26,69V392a20.34,20.34,0,0,1-20.34,20.33H166.44A20.34,20.34,0,0,1,146.1,392V69a20.34,20.34,0,0,1,20.34-20.33H711.92A20.34,20.34,0,0,1,732.26,69Z"/><path class="cls-11" d="M732.26,69V392a20.34,20.34,0,0,1-20.34,20.33H166.44A20.34,20.34,0,0,1,146.1,392V69a20.34,20.34,0,0,1,20.34-20.33H711.92A20.34,20.34,0,0,1,732.26,69Z"/></g></g></svg>